<?xml version="1.0" encoding="UTF-8" standalone="no"?>
<!DOCTYPE svg PUBLIC "-//W3C//DTD SVG 1.1//EN"
 "http://www.w3.org/Graphics/SVG/1.1/DTD/svg11.dtd">
<!-- Generated by graphviz version 2.38.0 (20140413.2041)
 -->
<!-- Title: dynamicgraph::tutorial::InvertedPendulum Pages: 1 -->
<svg width="1144pt" height="214pt"
 viewBox="0.00 0.00 1144.00 213.50" xmlns="http://www.w3.org/2000/svg" xmlns:xlink="http://www.w3.org/1999/xlink">
<g id="graph0" class="graph" transform="scale(1 1) rotate(0) translate(4 209.5)">
<title>dynamicgraph::tutorial::InvertedPendulum</title>
<polygon fill="white" stroke="none" points="-4,4 -4,-209.5 1140,-209.5 1140,4 -4,4"/>
<!-- Node1 -->
<g id="node1" class="node"><title>Node1</title>
<polygon fill="#bfbfbf" stroke="black" points="1023,-18 1023,-48 1136,-48 1136,-18 1023,-18"/>
<text text-anchor="start" x="1031" y="-36" font-family="Helvetica,sans-Serif" font-size="10.00">dynamicgraph::tutorial</text>
<text text-anchor="middle" x="1079.5" y="-25" font-family="Helvetica,sans-Serif" font-size="10.00">::InvertedPendulum</text>
</g>
<!-- Node2 -->
<g id="node2" class="node"><title>Node2</title>
<g id="a_node2"><a doxygen="/opt/openrobots/share/doc/dynamic-graph/doxygen-html/dynamic-graph.doxytag:../../../../../../opt/openrobots/share/doc/dynamic-graph/doxygen-html/" xlink:href="../../../../../../opt/openrobots/share/doc/dynamic-graph/doxygen-html/a00019.html" target="_top" xlink:title="dynamicgraph::Entity">
<polygon fill="white" stroke="black" points="877,-100.5 877,-119.5 986,-119.5 986,-100.5 877,-100.5"/>
<text text-anchor="middle" x="931.5" y="-107.5" font-family="Helvetica,sans-Serif" font-size="10.00">dynamicgraph::Entity</text>
</a>
</g>
</g>
<!-- Node2&#45;&gt;Node1 -->
<g id="edge1" class="edge"><title>Node2&#45;&gt;Node1</title>
<path fill="none" stroke="midnightblue" d="M959.547,-95.7357C985.273,-82.1678 1023.83,-61.8322 1050.02,-48.0199"/>
<polygon fill="midnightblue" stroke="midnightblue" points="957.908,-92.6427 950.696,-100.404 961.174,-98.8344 957.908,-92.6427"/>
</g>
<!-- Node3 -->
<g id="node3" class="node"><title>Node3</title>
<polygon fill="white" stroke="#bfbfbf" points="439,-154 439,-184 601,-184 601,-154 439,-154"/>
<text text-anchor="start" x="447" y="-172" font-family="Helvetica,sans-Serif" font-size="10.00">std::map&lt; const std</text>
<text text-anchor="middle" x="520" y="-161" font-family="Helvetica,sans-Serif" font-size="10.00">::string, command::Command * &gt;</text>
</g>
<!-- Node3&#45;&gt;Node2 -->
<g id="edge2" class="edge"><title>Node3&#45;&gt;Node2</title>
<path fill="none" stroke="#9a32cd" stroke-dasharray="5,2" d="M611.532,-166.964C680.205,-163.852 776.528,-156.113 859,-137 876.58,-132.926 895.66,-125.56 909.685,-119.55"/>
<polygon fill="#9a32cd" stroke="#9a32cd" points="611.021,-163.482 601.18,-167.407 611.321,-170.476 611.021,-163.482"/>
<text text-anchor="middle" x="736.5" y="-166" font-family="Helvetica,sans-Serif" font-size="10.00"> commandMap</text>
</g>
<!-- Node4 -->
<g id="node4" class="node"><title>Node4</title>
<g id="a_node4"><a doxygen="/opt/openrobots/share/doc/dynamic-graph/doxygen-html/dynamic-graph.doxytag:../../../../../../opt/openrobots/share/doc/dynamic-graph/doxygen-html/" xlink:href="../../../../../../opt/openrobots/share/doc/dynamic-graph/doxygen-html/a00006.html" target="_top" xlink:title="dynamicgraph::command\l::Command">
<polygon fill="white" stroke="black" points="234,-175 234,-205 360,-205 360,-175 234,-175"/>
<text text-anchor="start" x="242" y="-193" font-family="Helvetica,sans-Serif" font-size="10.00">dynamicgraph::command</text>
<text text-anchor="middle" x="297" y="-182" font-family="Helvetica,sans-Serif" font-size="10.00">::Command</text>
</a>
</g>
</g>
<!-- Node4&#45;&gt;Node3 -->
<g id="edge3" class="edge"><title>Node4&#45;&gt;Node3</title>
<path fill="none" stroke="#9a32cd" stroke-dasharray="5,2" d="M370.354,-183.125C392.226,-181.046 416.372,-178.752 438.729,-176.628"/>
<polygon fill="#9a32cd" stroke="#9a32cd" points="369.773,-179.664 360.149,-184.094 370.435,-186.633 369.773,-179.664"/>
<text text-anchor="middle" x="399.5" y="-185" font-family="Helvetica,sans-Serif" font-size="10.00"> elements</text>
</g>
<!-- Node5 -->
<g id="node5" class="node"><title>Node5</title>
<polygon fill="white" stroke="#bfbfbf" points="0,-175 0,-205 133,-205 133,-175 0,-175"/>
<text text-anchor="start" x="8" y="-193" font-family="Helvetica,sans-Serif" font-size="10.00">std::vector&lt; dynamicgraph</text>
<text text-anchor="middle" x="66.5" y="-182" font-family="Helvetica,sans-Serif" font-size="10.00">::command::Value::Type &gt;</text>
</g>
<!-- Node5&#45;&gt;Node4 -->
<g id="edge4" class="edge"><title>Node5&#45;&gt;Node4</title>
<path fill="none" stroke="#9a32cd" stroke-dasharray="5,2" d="M143.485,-190C172.813,-190 205.944,-190 233.816,-190"/>
<polygon fill="#9a32cd" stroke="#9a32cd" points="143.285,-186.5 133.285,-190 143.285,-193.5 143.285,-186.5"/>
<text text-anchor="middle" x="183.5" y="-193" font-family="Helvetica,sans-Serif" font-size="10.00"> EMPTY_ARG</text>
</g>
<!-- Node6 -->
<g id="node6" class="node"><title>Node6</title>
<g id="a_node6"><a xlink:title="STL class. ">
<polygon fill="white" stroke="#bfbfbf" points="267,-74.5 267,-93.5 327,-93.5 327,-74.5 267,-74.5"/>
<text text-anchor="middle" x="297" y="-81.5" font-family="Helvetica,sans-Serif" font-size="10.00">std::string</text>
</a>
</g>
</g>
<!-- Node6&#45;&gt;Node1 -->
<g id="edge12" class="edge"><title>Node6&#45;&gt;Node1</title>
<path fill="none" stroke="#9a32cd" stroke-dasharray="5,2" d="M320.777,-68.9855C359.695,-44.8249 442.241,-0 519,-0 519,-0 519,-0 932.5,-0 967.712,-0 1006.55,-9.24512 1035.31,-17.9485"/>
<polygon fill="#9a32cd" stroke="#9a32cd" points="318.86,-66.0569 312.284,-74.3641 322.605,-71.9708 318.86,-66.0569"/>
<text text-anchor="middle" x="736.5" y="-3" font-family="Helvetica,sans-Serif" font-size="10.00"> CLASS_NAME</text>
</g>
<!-- Node6&#45;&gt;Node2 -->
<g id="edge7" class="edge"><title>Node6&#45;&gt;Node2</title>
<path fill="none" stroke="#9a32cd" stroke-dasharray="5,2" d="M337.141,-91.4304C350.099,-93.6037 364.625,-95.7337 378,-97 569.661,-115.147 618.513,-105.528 811,-109 832.574,-109.389 856.341,-109.627 876.959,-109.773"/>
<polygon fill="#9a32cd" stroke="#9a32cd" points="337.588,-87.9557 327.137,-89.6938 336.391,-94.8526 337.588,-87.9557"/>
<text text-anchor="middle" x="640.5" y="-112" font-family="Helvetica,sans-Serif" font-size="10.00"> name</text>
</g>
<!-- Node6&#45;&gt;Node3 -->
<g id="edge5" class="edge"><title>Node6&#45;&gt;Node3</title>
<path fill="none" stroke="#9a32cd" stroke-dasharray="5,2" d="M318.965,-99.684C334.543,-110.679 356.697,-124.969 378,-134 397.39,-142.22 419.132,-148.801 439.628,-153.938"/>
<polygon fill="#9a32cd" stroke="#9a32cd" points="320.766,-96.668 310.609,-93.656 316.671,-102.345 320.766,-96.668"/>
<text text-anchor="middle" x="399.5" y="-152" font-family="Helvetica,sans-Serif" font-size="10.00"> keys</text>
</g>
<!-- Node8 -->
<g id="node8" class="node"><title>Node8</title>
<polygon fill="white" stroke="#bfbfbf" points="680,-64 680,-94 793,-94 793,-64 680,-64"/>
<text text-anchor="start" x="688" y="-82" font-family="Helvetica,sans-Serif" font-size="10.00">std::map&lt; std::string,</text>
<text text-anchor="middle" x="736.5" y="-71" font-family="Helvetica,sans-Serif" font-size="10.00"> SignalBase&lt; int &gt; * &gt;</text>
</g>
<!-- Node6&#45;&gt;Node8 -->
<g id="edge9" class="edge"><title>Node6&#45;&gt;Node8</title>
<path fill="none" stroke="#9a32cd" stroke-dasharray="5,2" d="M337.406,-83.5496C415.516,-82.657 590.167,-80.6609 679.916,-79.6352"/>
<polygon fill="#9a32cd" stroke="#9a32cd" points="337.004,-80.0539 327.044,-83.6681 337.084,-87.0535 337.004,-80.0539"/>
<text text-anchor="middle" x="520" y="-86" font-family="Helvetica,sans-Serif" font-size="10.00"> keys</text>
</g>
<!-- Node9 -->
<g id="node9" class="node"><title>Node9</title>
<g id="a_node9"><a doxygen="/opt/openrobots/share/doc/dynamic-graph/doxygen-html/dynamic-graph.doxytag:../../../../../../opt/openrobots/share/doc/dynamic-graph/doxygen-html/" xlink:href="../../../../../../opt/openrobots/share/doc/dynamic-graph/doxygen-html/a00043.html" target="_top" xlink:title="SignalBase\&lt; int \&gt;">
<polygon fill="white" stroke="black" points="472.5,-28.5 472.5,-47.5 567.5,-47.5 567.5,-28.5 472.5,-28.5"/>
<text text-anchor="middle" x="520" y="-35.5" font-family="Helvetica,sans-Serif" font-size="10.00">SignalBase&lt; int &gt;</text>
</a>
</g>
</g>
<!-- Node6&#45;&gt;Node9 -->
<g id="edge11" class="edge"><title>Node6&#45;&gt;Node9</title>
<path fill="none" stroke="#9a32cd" stroke-dasharray="5,2" d="M334.633,-71.2417C348.139,-66.8868 363.646,-62.2908 378,-59 409.119,-51.8656 444.679,-46.589 472.302,-43.1094"/>
<polygon fill="#9a32cd" stroke="#9a32cd" points="333.149,-68.0453 324.747,-74.4993 335.34,-74.6936 333.149,-68.0453"/>
<text text-anchor="middle" x="399.5" y="-62" font-family="Helvetica,sans-Serif" font-size="10.00"> name</text>
</g>
<!-- Node7 -->
<g id="node7" class="node"><title>Node7</title>
<g id="a_node7"><a xlink:title="STL class. ">
<polygon fill="white" stroke="#bfbfbf" points="19,-69 19,-99 114,-99 114,-69 19,-69"/>
<text text-anchor="start" x="27" y="-87" font-family="Helvetica,sans-Serif" font-size="10.00">std::basic_string&lt;</text>
<text text-anchor="middle" x="66.5" y="-76" font-family="Helvetica,sans-Serif" font-size="10.00"> char &gt;</text>
</a>
</g>
</g>
<!-- Node7&#45;&gt;Node6 -->
<g id="edge6" class="edge"><title>Node7&#45;&gt;Node6</title>
<path fill="none" stroke="midnightblue" d="M124.282,-84C169.566,-84 231.136,-84 266.919,-84"/>
<polygon fill="midnightblue" stroke="midnightblue" points="124.016,-80.5001 114.016,-84 124.016,-87.5001 124.016,-80.5001"/>
</g>
<!-- Node8&#45;&gt;Node2 -->
<g id="edge8" class="edge"><title>Node8&#45;&gt;Node2</title>
<path fill="none" stroke="#9a32cd" stroke-dasharray="5,2" d="M803.06,-89.115C821.188,-91.9492 840.862,-95.0599 859,-98 864.715,-98.9265 870.685,-99.9074 876.634,-100.893"/>
<polygon fill="#9a32cd" stroke="#9a32cd" points="803.588,-85.6551 793.168,-87.5717 802.509,-92.5714 803.588,-85.6551"/>
<text text-anchor="middle" x="835" y="-101" font-family="Helvetica,sans-Serif" font-size="10.00"> signalMap</text>
</g>
<!-- Node9&#45;&gt;Node8 -->
<g id="edge10" class="edge"><title>Node9&#45;&gt;Node8</title>
<path fill="none" stroke="#9a32cd" stroke-dasharray="5,2" d="M577.612,-44.8804C603.47,-48.4198 634.415,-53.2138 662,-59 668.86,-60.4389 676.029,-62.1392 683.087,-63.9311"/>
<polygon fill="#9a32cd" stroke="#9a32cd" points="577.98,-41.3985 567.604,-43.5378 577.05,-48.3363 577.98,-41.3985"/>
<text text-anchor="middle" x="640.5" y="-62" font-family="Helvetica,sans-Serif" font-size="10.00"> elements</text>
</g>
</g>
</svg>
