<?xml version="1.0" encoding="UTF-8" standalone="no"?>
<!DOCTYPE svg PUBLIC "-//W3C//DTD SVG 1.1//EN"
 "http://www.w3.org/Graphics/SVG/1.1/DTD/svg11.dtd">
<!-- Generated by graphviz version 2.38.0 (20140413.2041)
 -->
<!-- Title: feedback&#45;controller.hh Pages: 1 -->
<svg width="884pt" height="553pt"
 viewBox="0.00 0.00 883.50 553.00" xmlns="http://www.w3.org/2000/svg" xmlns:xlink="http://www.w3.org/1999/xlink">
<g id="graph0" class="graph" transform="scale(1 1) rotate(0) translate(4 549)">
<title>feedback&#45;controller.hh</title>
<polygon fill="white" stroke="none" points="-4,4 -4,-549 879.5,-549 879.5,4 -4,4"/>
<!-- Node1 -->
<g id="node1" class="node"><title>Node1</title>
<polygon fill="#bfbfbf" stroke="black" points="528.5,-525.5 528.5,-544.5 641.5,-544.5 641.5,-525.5 528.5,-525.5"/>
<text text-anchor="middle" x="585" y="-532.5" font-family="Helvetica,sans-Serif" font-size="10.00">feedback&#45;controller.hh</text>
</g>
<!-- Node2 -->
<g id="node2" class="node"><title>Node2</title>
<g id="a_node2"><a doxygen="/opt/openrobots/share/doc/dynamic-graph/doxygen-html/dynamic-graph.doxytag:../../../../../../opt/openrobots/share/doc/dynamic-graph/doxygen-html/" xlink:href="../../../../../../opt/openrobots/share/doc/dynamic-graph/doxygen-html/a00076.html" target="_top" xlink:title="dynamic&#45;graph/entity.h">
<polygon fill="white" stroke="black" points="37,-397 37,-416 153,-416 153,-397 37,-397"/>
<text text-anchor="middle" x="95" y="-404" font-family="Helvetica,sans-Serif" font-size="10.00">dynamic&#45;graph/entity.h</text>
</a>
</g>
</g>
<!-- Node1&#45;&gt;Node2 -->
<g id="edge1" class="edge"><title>Node1&#45;&gt;Node2</title>
<path fill="none" stroke="midnightblue" d="M551.706,-525.405C465.352,-503.111 234.231,-443.444 137.987,-418.598"/>
<polygon fill="midnightblue" stroke="midnightblue" points="138.575,-415.135 128.018,-416.024 136.825,-421.913 138.575,-415.135"/>
</g>
<!-- Node11 -->
<g id="node11" class="node"><title>Node11</title>
<g id="a_node11"><a doxygen="/opt/openrobots/share/doc/dynamic-graph/doxygen-html/dynamic-graph.doxytag:../../../../../../opt/openrobots/share/doc/dynamic-graph/doxygen-html/" xlink:href="../../../../../../opt/openrobots/share/doc/dynamic-graph/doxygen-html/a00094.html" target="_top" xlink:title="dynamic&#45;graph/signal\l&#45;ptr.h">
<polygon fill="white" stroke="black" points="595.5,-458.5 595.5,-488.5 704.5,-488.5 704.5,-458.5 595.5,-458.5"/>
<text text-anchor="start" x="603.5" y="-476.5" font-family="Helvetica,sans-Serif" font-size="10.00">dynamic&#45;graph/signal</text>
<text text-anchor="middle" x="650" y="-465.5" font-family="Helvetica,sans-Serif" font-size="10.00">&#45;ptr.h</text>
</a>
</g>
</g>
<!-- Node1&#45;&gt;Node11 -->
<g id="edge20" class="edge"><title>Node1&#45;&gt;Node11</title>
<path fill="none" stroke="midnightblue" d="M594.313,-525.475C602.869,-517.643 615.9,-505.714 627.206,-495.366"/>
<polygon fill="midnightblue" stroke="midnightblue" points="629.668,-497.857 634.681,-488.523 624.941,-492.693 629.668,-497.857"/>
</g>
<!-- Node17 -->
<g id="node17" class="node"><title>Node17</title>
<g id="a_node17"><a doxygen="/opt/openrobots/share/doc/dynamic-graph/doxygen-html/dynamic-graph.doxytag:../../../../../../opt/openrobots/share/doc/dynamic-graph/doxygen-html/" xlink:href="../../../../../../opt/openrobots/share/doc/dynamic-graph/doxygen-html/a00096.html" target="_top" xlink:title="dynamic&#45;graph/signal\l&#45;time&#45;dependent.h">
<polygon fill="white" stroke="black" points="466.5,-458.5 466.5,-488.5 575.5,-488.5 575.5,-458.5 466.5,-458.5"/>
<text text-anchor="start" x="474.5" y="-476.5" font-family="Helvetica,sans-Serif" font-size="10.00">dynamic&#45;graph/signal</text>
<text text-anchor="middle" x="521" y="-465.5" font-family="Helvetica,sans-Serif" font-size="10.00">&#45;time&#45;dependent.h</text>
</a>
</g>
</g>
<!-- Node1&#45;&gt;Node17 -->
<g id="edge36" class="edge"><title>Node1&#45;&gt;Node17</title>
<path fill="none" stroke="midnightblue" d="M575.83,-525.475C567.405,-517.643 554.575,-505.714 543.444,-495.366"/>
<polygon fill="midnightblue" stroke="midnightblue" points="545.791,-492.769 536.084,-488.523 541.024,-497.895 545.791,-492.769"/>
</g>
<!-- Node20 -->
<g id="node20" class="node"><title>Node20</title>
<g id="a_node20"><a doxygen="/opt/openrobots/share/doc/dynamic-graph/doxygen-html/dynamic-graph.doxytag:../../../../../../opt/openrobots/share/doc/dynamic-graph/doxygen-html/" xlink:href="../../../../../../opt/openrobots/share/doc/dynamic-graph/doxygen-html/a00084.html" target="_top" xlink:title="dynamic&#45;graph/linear\l&#45;algebra.h">
<polygon fill="white" stroke="black" points="722.5,-458.5 722.5,-488.5 829.5,-488.5 829.5,-458.5 722.5,-458.5"/>
<text text-anchor="start" x="730.5" y="-476.5" font-family="Helvetica,sans-Serif" font-size="10.00">dynamic&#45;graph/linear</text>
<text text-anchor="middle" x="776" y="-465.5" font-family="Helvetica,sans-Serif" font-size="10.00">&#45;algebra.h</text>
</a>
</g>
</g>
<!-- Node1&#45;&gt;Node20 -->
<g id="edge45" class="edge"><title>Node1&#45;&gt;Node20</title>
<path fill="none" stroke="midnightblue" d="M612.366,-525.475C640.652,-516.664 685.577,-502.668 721.204,-491.57"/>
<polygon fill="midnightblue" stroke="midnightblue" points="722.479,-494.839 730.985,-488.523 720.397,-488.156 722.479,-494.839"/>
</g>
<!-- Node3 -->
<g id="node3" class="node"><title>Node3</title>
<g id="a_node3"><a doxygen="/opt/openrobots/share/doc/dynamic-graph/doxygen-html/dynamic-graph.doxytag:../../../../../../opt/openrobots/share/doc/dynamic-graph/doxygen-html/" xlink:href="../../../../../../opt/openrobots/share/doc/dynamic-graph/doxygen-html/a00082.html" target="_top" xlink:title="dynamic&#45;graph/fwd.hh">
<polygon fill="white" stroke="black" points="141.5,-62 141.5,-81 254.5,-81 254.5,-62 141.5,-62"/>
<text text-anchor="middle" x="198" y="-69" font-family="Helvetica,sans-Serif" font-size="10.00">dynamic&#45;graph/fwd.hh</text>
</a>
</g>
</g>
<!-- Node2&#45;&gt;Node3 -->
<g id="edge2" class="edge"><title>Node2&#45;&gt;Node3</title>
<path fill="none" stroke="midnightblue" d="M82.5804,-396.852C56.8295,-377.795 0,-329.405 0,-273.5 0,-273.5 0,-273.5 0,-204.5 0,-134.593 86.5052,-99.4301 145.159,-83.623"/>
<polygon fill="midnightblue" stroke="midnightblue" points="146.23,-86.9613 155.037,-81.071 144.479,-80.1838 146.23,-86.9613"/>
</g>
<!-- Node4 -->
<g id="node4" class="node"><title>Node4</title>
<g id="a_node4"><a doxygen="/opt/openrobots/share/doc/dynamic-graph/doxygen-html/dynamic-graph.doxytag:../../../../../../opt/openrobots/share/doc/dynamic-graph/doxygen-html/" xlink:href="../../../../../../opt/openrobots/share/doc/dynamic-graph/doxygen-html/a00073.html" target="_top" xlink:title="dynamic&#45;graph/dynamic\l&#45;graph&#45;api.h">
<polygon fill="white" stroke="black" points="472,-56.5 472,-86.5 592,-86.5 592,-56.5 472,-56.5"/>
<text text-anchor="start" x="480" y="-74.5" font-family="Helvetica,sans-Serif" font-size="10.00">dynamic&#45;graph/dynamic</text>
<text text-anchor="middle" x="532" y="-63.5" font-family="Helvetica,sans-Serif" font-size="10.00">&#45;graph&#45;api.h</text>
</a>
</g>
</g>
<!-- Node2&#45;&gt;Node4 -->
<g id="edge3" class="edge"><title>Node2&#45;&gt;Node4</title>
<path fill="none" stroke="midnightblue" d="M97.6067,-396.99C102.661,-381.405 114.91,-347.705 133,-324 160.929,-287.401 170.943,-277.828 212,-257 273.142,-225.983 301.056,-252.404 362,-221 402.325,-200.221 404.83,-183.838 439,-154 462.63,-133.366 489.584,-109.734 508.369,-93.2493"/>
<polygon fill="midnightblue" stroke="midnightblue" points="510.679,-95.8787 515.886,-86.6517 506.062,-90.6177 510.679,-95.8787"/>
</g>
<!-- Node6 -->
<g id="node6" class="node"><title>Node6</title>
<g id="a_node6"><a doxygen="/opt/openrobots/share/doc/dynamic-graph/doxygen-html/dynamic-graph.doxytag:../../../../../../opt/openrobots/share/doc/dynamic-graph/doxygen-html/" xlink:href="../../../../../../opt/openrobots/share/doc/dynamic-graph/doxygen-html/a00078.html" target="_top" xlink:title="dynamic&#45;graph/exception\l&#45;factory.h">
<polygon fill="white" stroke="black" points="228.5,-190.5 228.5,-220.5 353.5,-220.5 353.5,-190.5 228.5,-190.5"/>
<text text-anchor="start" x="236.5" y="-208.5" font-family="Helvetica,sans-Serif" font-size="10.00">dynamic&#45;graph/exception</text>
<text text-anchor="middle" x="291" y="-197.5" font-family="Helvetica,sans-Serif" font-size="10.00">&#45;factory.h</text>
</a>
</g>
</g>
<!-- Node2&#45;&gt;Node6 -->
<g id="edge5" class="edge"><title>Node2&#45;&gt;Node6</title>
<path fill="none" stroke="midnightblue" d="M87.1766,-397C79.0664,-387.557 66.9018,-371.462 62,-355 55.0172,-331.549 69.6069,-258.528 71,-257 90.7095,-235.386 162.246,-221.807 218.461,-214.242"/>
<polygon fill="midnightblue" stroke="midnightblue" points="218.944,-217.709 228.407,-212.944 218.038,-210.768 218.944,-217.709"/>
</g>
<!-- Node8 -->
<g id="node8" class="node"><title>Node8</title>
<g id="a_node8"><a doxygen="/opt/openrobots/share/doc/dynamic-graph/doxygen-html/dynamic-graph.doxytag:../../../../../../opt/openrobots/share/doc/dynamic-graph/doxygen-html/" xlink:href="../../../../../../opt/openrobots/share/doc/dynamic-graph/doxygen-html/a00089.html" target="_top" xlink:title="dynamic&#45;graph/signal\l&#45;array.h">
<polygon fill="white" stroke="black" points="180.5,-324.5 180.5,-354.5 289.5,-354.5 289.5,-324.5 180.5,-324.5"/>
<text text-anchor="start" x="188.5" y="-342.5" font-family="Helvetica,sans-Serif" font-size="10.00">dynamic&#45;graph/signal</text>
<text text-anchor="middle" x="235" y="-331.5" font-family="Helvetica,sans-Serif" font-size="10.00">&#45;array.h</text>
</a>
</g>
</g>
<!-- Node2&#45;&gt;Node8 -->
<g id="edge11" class="edge"><title>Node2&#45;&gt;Node8</title>
<path fill="none" stroke="midnightblue" d="M113.591,-396.869C134.417,-387.199 168.772,-371.249 195.632,-358.778"/>
<polygon fill="midnightblue" stroke="midnightblue" points="197.19,-361.914 204.786,-354.528 194.242,-355.565 197.19,-361.914"/>
</g>
<!-- Node9 -->
<g id="node9" class="node"><title>Node9</title>
<g id="a_node9"><a doxygen="/opt/openrobots/share/doc/dynamic-graph/doxygen-html/dynamic-graph.doxytag:../../../../../../opt/openrobots/share/doc/dynamic-graph/doxygen-html/" xlink:href="../../../../../../opt/openrobots/share/doc/dynamic-graph/doxygen-html/a00090.html" target="_top" xlink:title="dynamic&#45;graph/signal\l&#45;base.h">
<polygon fill="white" stroke="black" points="221.5,-257.5 221.5,-287.5 330.5,-287.5 330.5,-257.5 221.5,-257.5"/>
<text text-anchor="start" x="229.5" y="-275.5" font-family="Helvetica,sans-Serif" font-size="10.00">dynamic&#45;graph/signal</text>
<text text-anchor="middle" x="276" y="-264.5" font-family="Helvetica,sans-Serif" font-size="10.00">&#45;base.h</text>
</a>
</g>
</g>
<!-- Node2&#45;&gt;Node9 -->
<g id="edge19" class="edge"><title>Node2&#45;&gt;Node9</title>
<path fill="none" stroke="midnightblue" d="M101.265,-396.893C113.29,-380.85 141.08,-346.013 171,-324 188.562,-311.079 209.95,-300.086 228.829,-291.688"/>
<polygon fill="midnightblue" stroke="midnightblue" points="230.362,-294.838 238.152,-287.657 227.584,-288.413 230.362,-294.838"/>
</g>
<!-- Node5 -->
<g id="node5" class="node"><title>Node5</title>
<g id="a_node5"><a doxygen="/opt/openrobots/share/doc/dynamic-graph/doxygen-html/dynamic-graph.doxytag:../../../../../../opt/openrobots/share/doc/dynamic-graph/doxygen-html/" xlink:href="../../../../../../opt/openrobots/share/doc/dynamic-graph/doxygen-html/a00068.html" target="_top" xlink:title="dynamic&#45;graph/config.hh">
<polygon fill="white" stroke="black" points="470.5,-0.5 470.5,-19.5 593.5,-19.5 593.5,-0.5 470.5,-0.5"/>
<text text-anchor="middle" x="532" y="-7.5" font-family="Helvetica,sans-Serif" font-size="10.00">dynamic&#45;graph/config.hh</text>
</a>
</g>
</g>
<!-- Node4&#45;&gt;Node5 -->
<g id="edge4" class="edge"><title>Node4&#45;&gt;Node5</title>
<path fill="none" stroke="midnightblue" d="M532,-56.3993C532,-48.4664 532,-38.458 532,-29.8583"/>
<polygon fill="midnightblue" stroke="midnightblue" points="535.5,-29.6577 532,-19.6578 528.5,-29.6578 535.5,-29.6577"/>
</g>
<!-- Node6&#45;&gt;Node3 -->
<g id="edge6" class="edge"><title>Node6&#45;&gt;Node3</title>
<path fill="none" stroke="midnightblue" d="M280.879,-190.375C273.646,-180.262 263.695,-166.314 255,-154 239.348,-131.834 221.432,-106.168 209.931,-89.6539"/>
<polygon fill="midnightblue" stroke="midnightblue" points="212.551,-87.2917 203.965,-81.0834 206.805,-91.2905 212.551,-87.2917"/>
</g>
<!-- Node6&#45;&gt;Node4 -->
<g id="edge7" class="edge"><title>Node6&#45;&gt;Node4</title>
<path fill="none" stroke="midnightblue" d="M323.275,-190.341C344.739,-180.664 373.4,-167.239 398,-154 434.406,-134.408 474.765,-109.386 501.581,-92.268"/>
<polygon fill="midnightblue" stroke="midnightblue" points="503.602,-95.1296 510.13,-86.7849 499.823,-89.2372 503.602,-95.1296"/>
</g>
<!-- Node7 -->
<g id="node7" class="node"><title>Node7</title>
<g id="a_node7"><a doxygen="/opt/openrobots/share/doc/dynamic-graph/doxygen-html/dynamic-graph.doxytag:../../../../../../opt/openrobots/share/doc/dynamic-graph/doxygen-html/" xlink:href="../../../../../../opt/openrobots/share/doc/dynamic-graph/doxygen-html/a00077.html" target="_top" xlink:title="dynamic&#45;graph/exception\l&#45;abstract.h">
<polygon fill="white" stroke="black" points="264.5,-123.5 264.5,-153.5 389.5,-153.5 389.5,-123.5 264.5,-123.5"/>
<text text-anchor="start" x="272.5" y="-141.5" font-family="Helvetica,sans-Serif" font-size="10.00">dynamic&#45;graph/exception</text>
<text text-anchor="middle" x="327" y="-130.5" font-family="Helvetica,sans-Serif" font-size="10.00">&#45;abstract.h</text>
</a>
</g>
</g>
<!-- Node6&#45;&gt;Node7 -->
<g id="edge8" class="edge"><title>Node6&#45;&gt;Node7</title>
<path fill="none" stroke="midnightblue" d="M298.811,-190.396C303.34,-182.219 309.152,-171.725 314.321,-162.393"/>
<polygon fill="midnightblue" stroke="midnightblue" points="317.421,-164.02 319.204,-153.577 311.297,-160.629 317.421,-164.02"/>
</g>
<!-- Node7&#45;&gt;Node3 -->
<g id="edge9" class="edge"><title>Node7&#45;&gt;Node3</title>
<path fill="none" stroke="midnightblue" d="M299.009,-123.396C276.675,-112.142 245.633,-96.501 223.874,-85.5375"/>
<polygon fill="midnightblue" stroke="midnightblue" points="225.388,-82.3812 214.883,-81.007 222.239,-88.6325 225.388,-82.3812"/>
</g>
<!-- Node7&#45;&gt;Node4 -->
<g id="edge10" class="edge"><title>Node7&#45;&gt;Node4</title>
<path fill="none" stroke="midnightblue" d="M371.23,-123.476C402.511,-113.557 444.635,-100.201 477.918,-89.6481"/>
<polygon fill="midnightblue" stroke="midnightblue" points="479.022,-92.9697 487.496,-86.6109 476.906,-86.2971 479.022,-92.9697"/>
</g>
<!-- Node8&#45;&gt;Node4 -->
<g id="edge18" class="edge"><title>Node8&#45;&gt;Node4</title>
<path fill="none" stroke="midnightblue" d="M289.804,-325.988C371.664,-306.062 519.541,-264.87 550,-221 576.061,-183.464 557.793,-127.372 543.822,-95.9656"/>
<polygon fill="midnightblue" stroke="midnightblue" points="546.896,-94.2756 539.498,-86.6908 540.551,-97.2332 546.896,-94.2756"/>
</g>
<!-- Node8&#45;&gt;Node9 -->
<g id="edge12" class="edge"><title>Node8&#45;&gt;Node9</title>
<path fill="none" stroke="midnightblue" d="M243.896,-324.396C249.108,-316.134 255.811,-305.507 261.744,-296.102"/>
<polygon fill="midnightblue" stroke="midnightblue" points="264.746,-297.902 267.121,-287.577 258.826,-294.167 264.746,-297.902"/>
</g>
<!-- Node9&#45;&gt;Node3 -->
<g id="edge13" class="edge"><title>Node9&#45;&gt;Node3</title>
<path fill="none" stroke="midnightblue" d="M229.356,-257.36C211.962,-249.568 194.022,-237.934 184,-221 159.567,-179.717 177.826,-120.42 189.785,-90.798"/>
<polygon fill="midnightblue" stroke="midnightblue" points="193.124,-91.8879 193.815,-81.3155 186.682,-89.1499 193.124,-91.8879"/>
</g>
<!-- Node10 -->
<g id="node10" class="node"><title>Node10</title>
<g id="a_node10"><a doxygen="/opt/openrobots/share/doc/dynamic-graph/doxygen-html/dynamic-graph.doxytag:../../../../../../opt/openrobots/share/doc/dynamic-graph/doxygen-html/" xlink:href="../../../../../../opt/openrobots/share/doc/dynamic-graph/doxygen-html/a00079.html" target="_top" xlink:title="dynamic&#45;graph/exception\l&#45;signal.h">
<polygon fill="white" stroke="black" points="416.5,-190.5 416.5,-220.5 541.5,-220.5 541.5,-190.5 416.5,-190.5"/>
<text text-anchor="start" x="424.5" y="-208.5" font-family="Helvetica,sans-Serif" font-size="10.00">dynamic&#45;graph/exception</text>
<text text-anchor="middle" x="479" y="-197.5" font-family="Helvetica,sans-Serif" font-size="10.00">&#45;signal.h</text>
</a>
</g>
</g>
<!-- Node9&#45;&gt;Node10 -->
<g id="edge14" class="edge"><title>Node9&#45;&gt;Node10</title>
<path fill="none" stroke="midnightblue" d="M320.048,-257.396C350.906,-247.515 392.327,-234.252 425.149,-223.743"/>
<polygon fill="midnightblue" stroke="midnightblue" points="426.582,-226.959 435.038,-220.577 424.447,-220.293 426.582,-226.959"/>
</g>
<!-- Node10&#45;&gt;Node3 -->
<g id="edge15" class="edge"><title>Node10&#45;&gt;Node3</title>
<path fill="none" stroke="midnightblue" d="M468.914,-190.376C455.046,-172.022 428.332,-140.283 398,-123 357.124,-99.7098 305.534,-87.0246 264.99,-80.1932"/>
<polygon fill="midnightblue" stroke="midnightblue" points="265.361,-76.7081 254.933,-78.5796 264.252,-83.6197 265.361,-76.7081"/>
</g>
<!-- Node10&#45;&gt;Node4 -->
<g id="edge16" class="edge"><title>Node10&#45;&gt;Node4</title>
<path fill="none" stroke="midnightblue" d="M488.31,-190.381C494.519,-180.502 502.518,-166.83 508,-154 515.988,-135.308 522.33,-113.122 526.485,-96.6211"/>
<polygon fill="midnightblue" stroke="midnightblue" points="529.937,-97.2358 528.894,-86.6925 523.134,-95.5852 529.937,-97.2358"/>
</g>
<!-- Node10&#45;&gt;Node7 -->
<g id="edge17" class="edge"><title>Node10&#45;&gt;Node7</title>
<path fill="none" stroke="midnightblue" d="M446.018,-190.396C423.511,-180.771 393.497,-167.936 369.241,-157.564"/>
<polygon fill="midnightblue" stroke="midnightblue" points="370.488,-154.29 359.917,-153.577 367.736,-160.727 370.488,-154.29"/>
</g>
<!-- Node11&#45;&gt;Node10 -->
<g id="edge21" class="edge"><title>Node11&#45;&gt;Node10</title>
<path fill="none" stroke="midnightblue" d="M678.911,-458.448C692.849,-449.99 708.204,-437.781 716,-422 733.462,-386.651 789.048,-347.873 715,-257 694.598,-231.962 613.18,-218.766 551.635,-212.23"/>
<polygon fill="midnightblue" stroke="midnightblue" points="551.859,-208.734 541.555,-211.199 551.147,-215.698 551.859,-208.734"/>
</g>
<!-- Node12 -->
<g id="node12" class="node"><title>Node12</title>
<g id="a_node12"><a doxygen="/opt/openrobots/share/doc/dynamic-graph/doxygen-html/dynamic-graph.doxytag:../../../../../../opt/openrobots/share/doc/dynamic-graph/doxygen-html/" xlink:href="../../../../../../opt/openrobots/share/doc/dynamic-graph/doxygen-html/a00097.html" target="_top" xlink:title="dynamic&#45;graph/signal.h">
<polygon fill="white" stroke="black" points="462.5,-397 462.5,-416 579.5,-416 579.5,-397 462.5,-397"/>
<text text-anchor="middle" x="521" y="-404" font-family="Helvetica,sans-Serif" font-size="10.00">dynamic&#45;graph/signal.h</text>
</a>
</g>
</g>
<!-- Node11&#45;&gt;Node12 -->
<g id="edge22" class="edge"><title>Node11&#45;&gt;Node12</title>
<path fill="none" stroke="midnightblue" d="M622.009,-458.396C599.675,-447.142 568.633,-431.501 546.874,-420.538"/>
<polygon fill="midnightblue" stroke="midnightblue" points="548.388,-417.381 537.883,-416.007 545.239,-423.633 548.388,-417.381"/>
</g>
<!-- Node16 -->
<g id="node16" class="node"><title>Node16</title>
<g id="a_node16"><a doxygen="/opt/openrobots/share/doc/dynamic-graph/doxygen-html/dynamic-graph.doxytag:../../../../../../opt/openrobots/share/doc/dynamic-graph/doxygen-html/" xlink:href="../../../../../../opt/openrobots/share/doc/dynamic-graph/doxygen-html/a00095.html" target="_top" xlink:title="dynamic&#45;graph/signal\l&#45;ptr.t.cpp">
<polygon fill="white" stroke="black" points="597.5,-391.5 597.5,-421.5 706.5,-421.5 706.5,-391.5 597.5,-391.5"/>
<text text-anchor="start" x="605.5" y="-409.5" font-family="Helvetica,sans-Serif" font-size="10.00">dynamic&#45;graph/signal</text>
<text text-anchor="middle" x="652" y="-398.5" font-family="Helvetica,sans-Serif" font-size="10.00">&#45;ptr.t.cpp</text>
</a>
</g>
</g>
<!-- Node11&#45;&gt;Node16 -->
<g id="edge33" class="edge"><title>Node11&#45;&gt;Node16</title>
<path fill="none" stroke="midnightblue" d="M644.756,-458.396C643.969,-450.56 643.987,-440.596 644.716,-431.565"/>
<polygon fill="midnightblue" stroke="midnightblue" points="648.198,-431.917 645.892,-421.577 641.246,-431.099 648.198,-431.917"/>
</g>
<!-- Node12&#45;&gt;Node9 -->
<g id="edge24" class="edge"><title>Node12&#45;&gt;Node9</title>
<path fill="none" stroke="midnightblue" d="M516.665,-396.884C507.815,-380.19 486.029,-343.377 457,-324 422.401,-300.905 377.364,-288.288 340.87,-281.44"/>
<polygon fill="midnightblue" stroke="midnightblue" points="341.277,-277.958 330.82,-279.658 340.055,-284.851 341.277,-277.958"/>
</g>
<!-- Node12&#45;&gt;Node10 -->
<g id="edge23" class="edge"><title>Node12&#45;&gt;Node10</title>
<path fill="none" stroke="midnightblue" d="M519.195,-396.949C513.147,-368.29 493.444,-274.939 484.059,-230.472"/>
<polygon fill="midnightblue" stroke="midnightblue" points="487.451,-229.595 481.962,-220.533 480.602,-231.04 487.451,-229.595"/>
</g>
<!-- Node13 -->
<g id="node13" class="node"><title>Node13</title>
<g id="a_node13"><a doxygen="/opt/openrobots/share/doc/dynamic-graph/doxygen-html/dynamic-graph.doxytag:../../../../../../opt/openrobots/share/doc/dynamic-graph/doxygen-html/" xlink:href="../../../../../../opt/openrobots/share/doc/dynamic-graph/doxygen-html/a00098.html" target="_top" xlink:title="dynamic&#45;graph/signal.t.cpp">
<polygon fill="white" stroke="black" points="542,-330 542,-349 676,-349 676,-330 542,-330"/>
<text text-anchor="middle" x="609" y="-337" font-family="Helvetica,sans-Serif" font-size="10.00">dynamic&#45;graph/signal.t.cpp</text>
</a>
</g>
</g>
<!-- Node12&#45;&gt;Node13 -->
<g id="edge25" class="edge"><title>Node12&#45;&gt;Node13</title>
<path fill="none" stroke="midnightblue" d="M528.08,-396.734C540.394,-385.964 565.021,-367.55 584.026,-354.739"/>
<polygon fill="midnightblue" stroke="midnightblue" points="586.128,-357.546 592.561,-349.127 582.282,-351.697 586.128,-357.546"/>
</g>
<!-- Node13&#45;&gt;Node12 -->
<g id="edge26" class="edge"><title>Node13&#45;&gt;Node12</title>
<path fill="none" stroke="midnightblue" d="M602.079,-349.127C589.872,-359.831 565.273,-378.236 546.22,-391.095"/>
<polygon fill="midnightblue" stroke="midnightblue" points="544.083,-388.311 537.657,-396.734 547.933,-394.157 544.083,-388.311"/>
</g>
<!-- Node14 -->
<g id="node14" class="node"><title>Node14</title>
<g id="a_node14"><a doxygen="/opt/openrobots/share/doc/dynamic-graph/doxygen-html/dynamic-graph.doxytag:../../../../../../opt/openrobots/share/doc/dynamic-graph/doxygen-html/" xlink:href="../../../../../../opt/openrobots/share/doc/dynamic-graph/doxygen-html/a00092.html" target="_top" xlink:title="dynamic&#45;graph/signal\l&#45;caster.h">
<polygon fill="white" stroke="black" points="766.5,-257.5 766.5,-287.5 875.5,-287.5 875.5,-257.5 766.5,-257.5"/>
<text text-anchor="start" x="774.5" y="-275.5" font-family="Helvetica,sans-Serif" font-size="10.00">dynamic&#45;graph/signal</text>
<text text-anchor="middle" x="821" y="-264.5" font-family="Helvetica,sans-Serif" font-size="10.00">&#45;caster.h</text>
</a>
</g>
</g>
<!-- Node13&#45;&gt;Node14 -->
<g id="edge27" class="edge"><title>Node13&#45;&gt;Node14</title>
<path fill="none" stroke="midnightblue" d="M637.152,-329.869C669.79,-319.862 724.372,-303.127 765.606,-290.484"/>
<polygon fill="midnightblue" stroke="midnightblue" points="766.712,-293.806 775.247,-287.528 764.66,-287.113 766.712,-293.806"/>
</g>
<!-- Node15 -->
<g id="node15" class="node"><title>Node15</title>
<g id="a_node15"><a doxygen="/opt/openrobots/share/doc/dynamic-graph/doxygen-html/dynamic-graph.doxytag:../../../../../../opt/openrobots/share/doc/dynamic-graph/doxygen-html/" xlink:href="../../../../../../opt/openrobots/share/doc/dynamic-graph/doxygen-html/a00070.html" target="_top" xlink:title="dynamic&#45;graph/debug.h">
<polygon fill="white" stroke="black" points="588,-263 588,-282 706,-282 706,-263 588,-263"/>
<text text-anchor="middle" x="647" y="-270" font-family="Helvetica,sans-Serif" font-size="10.00">dynamic&#45;graph/debug.h</text>
</a>
</g>
</g>
<!-- Node13&#45;&gt;Node15 -->
<g id="edge30" class="edge"><title>Node13&#45;&gt;Node15</title>
<path fill="none" stroke="midnightblue" d="M614.125,-329.734C619.937,-319.793 629.556,-303.338 636.892,-290.789"/>
<polygon fill="midnightblue" stroke="midnightblue" points="639.931,-292.527 641.956,-282.127 633.888,-288.994 639.931,-292.527"/>
</g>
<!-- Node14&#45;&gt;Node4 -->
<g id="edge28" class="edge"><title>Node14&#45;&gt;Node4</title>
<path fill="none" stroke="midnightblue" d="M800.572,-257.334C762.397,-230.874 677.618,-172.17 606,-123 591.274,-112.89 574.868,-101.688 561.253,-92.4077"/>
<polygon fill="midnightblue" stroke="midnightblue" points="562.99,-89.3558 552.755,-86.618 559.048,-95.1409 562.99,-89.3558"/>
</g>
<!-- Node14&#45;&gt;Node10 -->
<g id="edge29" class="edge"><title>Node14&#45;&gt;Node10</title>
<path fill="none" stroke="midnightblue" d="M766.412,-259.901C761.541,-258.905 756.683,-257.925 752,-257 684.225,-243.612 606.766,-229.386 551.711,-219.456"/>
<polygon fill="midnightblue" stroke="midnightblue" points="552.162,-215.981 541.7,-217.653 550.921,-222.87 552.162,-215.981"/>
</g>
<!-- Node15&#45;&gt;Node3 -->
<g id="edge31" class="edge"><title>Node15&#45;&gt;Node3</title>
<path fill="none" stroke="midnightblue" d="M587.984,-268.487C476.764,-262.245 244.92,-246.33 219,-221 184.005,-186.802 189.071,-122.791 194.241,-91.1644"/>
<polygon fill="midnightblue" stroke="midnightblue" points="197.727,-91.5584 196.076,-81.093 190.84,-90.3035 197.727,-91.5584"/>
</g>
<!-- Node15&#45;&gt;Node4 -->
<g id="edge32" class="edge"><title>Node15&#45;&gt;Node4</title>
<path fill="none" stroke="midnightblue" d="M644.658,-262.864C637.935,-239.054 616.921,-171.056 584,-123 576.739,-112.401 566.999,-102.224 557.912,-93.8181"/>
<polygon fill="midnightblue" stroke="midnightblue" points="559.968,-90.9618 550.174,-86.9211 555.31,-96.1875 559.968,-90.9618"/>
</g>
<!-- Node16&#45;&gt;Node11 -->
<g id="edge34" class="edge"><title>Node16&#45;&gt;Node11</title>
<path fill="none" stroke="midnightblue" d="M657.242,-421.577C658.03,-429.408 658.014,-439.37 657.287,-448.403"/>
<polygon fill="midnightblue" stroke="midnightblue" points="653.804,-448.056 656.112,-458.396 660.756,-448.873 653.804,-448.056"/>
</g>
<!-- Node16&#45;&gt;Node15 -->
<g id="edge35" class="edge"><title>Node16&#45;&gt;Node15</title>
<path fill="none" stroke="midnightblue" d="M664.612,-391.188C672.141,-381.656 680.995,-368.451 685,-355 688.932,-341.795 689.367,-337.067 685,-324 680.686,-311.093 671.632,-298.838 663.444,-289.634"/>
<polygon fill="midnightblue" stroke="midnightblue" points="665.742,-286.97 656.329,-282.107 660.655,-291.778 665.742,-286.97"/>
</g>
<!-- Node17&#45;&gt;Node12 -->
<g id="edge37" class="edge"><title>Node17&#45;&gt;Node12</title>
<path fill="none" stroke="midnightblue" d="M521,-458.396C521,-449.064 521,-436.714 521,-426.517"/>
<polygon fill="midnightblue" stroke="midnightblue" points="524.5,-426.195 521,-416.195 517.5,-426.195 524.5,-426.195"/>
</g>
<!-- Node18 -->
<g id="node18" class="node"><title>Node18</title>
<g id="a_node18"><a doxygen="/opt/openrobots/share/doc/dynamic-graph/doxygen-html/dynamic-graph.doxytag:../../../../../../opt/openrobots/share/doc/dynamic-graph/doxygen-html/" xlink:href="../../../../../../opt/openrobots/share/doc/dynamic-graph/doxygen-html/a00099.html" target="_top" xlink:title="dynamic&#45;graph/time\l&#45;dependency.h">
<polygon fill="white" stroke="black" points="308,-391.5 308,-421.5 410,-421.5 410,-391.5 308,-391.5"/>
<text text-anchor="start" x="316" y="-409.5" font-family="Helvetica,sans-Serif" font-size="10.00">dynamic&#45;graph/time</text>
<text text-anchor="middle" x="359" y="-398.5" font-family="Helvetica,sans-Serif" font-size="10.00">&#45;dependency.h</text>
</a>
</g>
</g>
<!-- Node17&#45;&gt;Node18 -->
<g id="edge38" class="edge"><title>Node17&#45;&gt;Node18</title>
<path fill="none" stroke="midnightblue" d="M485.848,-458.396C461.754,-448.728 429.589,-435.823 403.678,-425.426"/>
<polygon fill="midnightblue" stroke="midnightblue" points="404.667,-422.052 394.083,-421.577 402.06,-428.549 404.667,-422.052"/>
</g>
<!-- Node18&#45;&gt;Node3 -->
<g id="edge39" class="edge"><title>Node18&#45;&gt;Node3</title>
<path fill="none" stroke="midnightblue" d="M307.881,-398.764C258.141,-391.04 187.687,-376.594 171,-355 107.95,-273.411 144.177,-222.826 170,-123 173.088,-111.062 179.672,-98.9382 185.681,-89.5624"/>
<polygon fill="midnightblue" stroke="midnightblue" points="188.628,-91.4519 191.346,-81.2115 182.835,-87.5221 188.628,-91.4519"/>
</g>
<!-- Node18&#45;&gt;Node8 -->
<g id="edge41" class="edge"><title>Node18&#45;&gt;Node8</title>
<path fill="none" stroke="midnightblue" d="M332.094,-391.396C314.139,-381.984 290.328,-369.503 270.78,-359.256"/>
<polygon fill="midnightblue" stroke="midnightblue" points="272.336,-356.119 261.854,-354.577 269.086,-362.319 272.336,-356.119"/>
</g>
<!-- Node18&#45;&gt;Node9 -->
<g id="edge40" class="edge"><title>Node18&#45;&gt;Node9</title>
<path fill="none" stroke="midnightblue" d="M350.118,-391.374C335.765,-368.548 307.351,-323.359 290.176,-296.045"/>
<polygon fill="midnightblue" stroke="midnightblue" points="293.105,-294.127 284.819,-287.525 287.179,-297.853 293.105,-294.127"/>
</g>
<!-- Node19 -->
<g id="node19" class="node"><title>Node19</title>
<g id="a_node19"><a doxygen="/opt/openrobots/share/doc/dynamic-graph/doxygen-html/dynamic-graph.doxytag:../../../../../../opt/openrobots/share/doc/dynamic-graph/doxygen-html/" xlink:href="../../../../../../opt/openrobots/share/doc/dynamic-graph/doxygen-html/a00100.html" target="_top" xlink:title="dynamic&#45;graph/time\l&#45;dependency.t.cpp">
<polygon fill="white" stroke="black" points="346,-324.5 346,-354.5 448,-354.5 448,-324.5 346,-324.5"/>
<text text-anchor="start" x="354" y="-342.5" font-family="Helvetica,sans-Serif" font-size="10.00">dynamic&#45;graph/time</text>
<text text-anchor="middle" x="397" y="-331.5" font-family="Helvetica,sans-Serif" font-size="10.00">&#45;dependency.t.cpp</text>
</a>
</g>
</g>
<!-- Node18&#45;&gt;Node19 -->
<g id="edge42" class="edge"><title>Node18&#45;&gt;Node19</title>
<path fill="none" stroke="midnightblue" d="M361.567,-391.396C365.314,-383.134 371.265,-372.507 377.323,-363.102"/>
<polygon fill="midnightblue" stroke="midnightblue" points="380.387,-364.819 383.096,-354.577 374.591,-360.894 380.387,-364.819"/>
</g>
<!-- Node19&#45;&gt;Node15 -->
<g id="edge44" class="edge"><title>Node19&#45;&gt;Node15</title>
<path fill="none" stroke="midnightblue" d="M448.195,-325.189C494.218,-313.223 561.038,-295.85 604.259,-284.613"/>
<polygon fill="midnightblue" stroke="midnightblue" points="605.379,-287.938 614.176,-282.034 603.617,-281.163 605.379,-287.938"/>
</g>
<!-- Node19&#45;&gt;Node18 -->
<g id="edge43" class="edge"><title>Node19&#45;&gt;Node18</title>
<path fill="none" stroke="midnightblue" d="M394.445,-354.577C390.704,-362.833 384.755,-373.459 378.697,-382.867"/>
<polygon fill="midnightblue" stroke="midnightblue" points="375.631,-381.153 372.924,-391.396 381.428,-385.077 375.631,-381.153"/>
</g>
</g>
</svg>
