<?xml version="1.0" encoding="UTF-8" standalone="no"?>
<!DOCTYPE svg PUBLIC "-//W3C//DTD SVG 1.1//EN"
 "http://www.w3.org/Graphics/SVG/1.1/DTD/svg11.dtd">
<!-- Generated by graphviz version 2.38.0 (20140413.2041)
 -->
<!-- Title: inverted&#45;pendulum.hh Pages: 1 -->
<svg width="708pt" height="553pt"
 viewBox="0.00 0.00 708.00 553.00" xmlns="http://www.w3.org/2000/svg" xmlns:xlink="http://www.w3.org/1999/xlink">
<g id="graph0" class="graph" transform="scale(1 1) rotate(0) translate(4 549)">
<title>inverted&#45;pendulum.hh</title>
<polygon fill="white" stroke="none" points="-4,4 -4,-549 704,-549 704,4 -4,4"/>
<!-- Node1 -->
<g id="node1" class="node"><title>Node1</title>
<polygon fill="#bfbfbf" stroke="black" points="324,-525.5 324,-544.5 434,-544.5 434,-525.5 324,-525.5"/>
<text text-anchor="middle" x="379" y="-532.5" font-family="Helvetica,sans-Serif" font-size="10.00">inverted&#45;pendulum.hh</text>
</g>
<!-- Node2 -->
<g id="node2" class="node"><title>Node2</title>
<g id="a_node2"><a doxygen="/opt/openrobots/share/doc/dynamic-graph/doxygen-html/dynamic-graph.doxytag:../../../../../../opt/openrobots/share/doc/dynamic-graph/doxygen-html/" xlink:href="../../../../../../opt/openrobots/share/doc/dynamic-graph/doxygen-html/a00076.html" target="_top" xlink:title="dynamic&#45;graph/entity.h">
<polygon fill="white" stroke="black" points="397,-397 397,-416 513,-416 513,-397 397,-397"/>
<text text-anchor="middle" x="455" y="-404" font-family="Helvetica,sans-Serif" font-size="10.00">dynamic&#45;graph/entity.h</text>
</a>
</g>
</g>
<!-- Node1&#45;&gt;Node2 -->
<g id="edge1" class="edge"><title>Node1&#45;&gt;Node2</title>
<path fill="none" stroke="midnightblue" d="M379.502,-525.389C380.707,-510.6 384.736,-479.86 398,-458 406.775,-443.538 421.016,-430.918 433.069,-421.911"/>
<polygon fill="midnightblue" stroke="midnightblue" points="435.232,-424.667 441.348,-416.016 431.172,-418.965 435.232,-424.667"/>
</g>
<!-- Node11 -->
<g id="node11" class="node"><title>Node11</title>
<g id="a_node11"><a doxygen="/opt/openrobots/share/doc/dynamic-graph/doxygen-html/dynamic-graph.doxytag:../../../../../../opt/openrobots/share/doc/dynamic-graph/doxygen-html/" xlink:href="../../../../../../opt/openrobots/share/doc/dynamic-graph/doxygen-html/a00094.html" target="_top" xlink:title="dynamic&#45;graph/signal\l&#45;ptr.h">
<polygon fill="white" stroke="black" points="166.5,-458.5 166.5,-488.5 275.5,-488.5 275.5,-458.5 166.5,-458.5"/>
<text text-anchor="start" x="174.5" y="-476.5" font-family="Helvetica,sans-Serif" font-size="10.00">dynamic&#45;graph/signal</text>
<text text-anchor="middle" x="221" y="-465.5" font-family="Helvetica,sans-Serif" font-size="10.00">&#45;ptr.h</text>
</a>
</g>
</g>
<!-- Node1&#45;&gt;Node11 -->
<g id="edge20" class="edge"><title>Node1&#45;&gt;Node11</title>
<path fill="none" stroke="midnightblue" d="M356.362,-525.475C333.364,-516.814 297.067,-503.145 267.846,-492.141"/>
<polygon fill="midnightblue" stroke="midnightblue" points="268.829,-488.772 258.237,-488.523 266.362,-495.323 268.829,-488.772"/>
</g>
<!-- Node17 -->
<g id="node17" class="node"><title>Node17</title>
<g id="a_node17"><a doxygen="/opt/openrobots/share/doc/dynamic-graph/doxygen-html/dynamic-graph.doxytag:../../../../../../opt/openrobots/share/doc/dynamic-graph/doxygen-html/" xlink:href="../../../../../../opt/openrobots/share/doc/dynamic-graph/doxygen-html/a00084.html" target="_top" xlink:title="dynamic&#45;graph/linear\l&#45;algebra.h">
<polygon fill="white" stroke="black" points="407.5,-458.5 407.5,-488.5 514.5,-488.5 514.5,-458.5 407.5,-458.5"/>
<text text-anchor="start" x="415.5" y="-476.5" font-family="Helvetica,sans-Serif" font-size="10.00">dynamic&#45;graph/linear</text>
<text text-anchor="middle" x="461" y="-465.5" font-family="Helvetica,sans-Serif" font-size="10.00">&#45;algebra.h</text>
</a>
</g>
</g>
<!-- Node1&#45;&gt;Node17 -->
<g id="edge36" class="edge"><title>Node1&#45;&gt;Node17</title>
<path fill="none" stroke="midnightblue" d="M390.749,-525.475C401.854,-517.417 418.935,-505.023 433.473,-494.474"/>
<polygon fill="midnightblue" stroke="midnightblue" points="435.636,-497.229 441.674,-488.523 431.525,-491.563 435.636,-497.229"/>
</g>
<!-- Node3 -->
<g id="node3" class="node"><title>Node3</title>
<g id="a_node3"><a doxygen="/opt/openrobots/share/doc/dynamic-graph/doxygen-html/dynamic-graph.doxytag:../../../../../../opt/openrobots/share/doc/dynamic-graph/doxygen-html/" xlink:href="../../../../../../opt/openrobots/share/doc/dynamic-graph/doxygen-html/a00082.html" target="_top" xlink:title="dynamic&#45;graph/fwd.hh">
<polygon fill="white" stroke="black" points="548.5,-62 548.5,-81 661.5,-81 661.5,-62 548.5,-62"/>
<text text-anchor="middle" x="605" y="-69" font-family="Helvetica,sans-Serif" font-size="10.00">dynamic&#45;graph/fwd.hh</text>
</a>
</g>
</g>
<!-- Node2&#45;&gt;Node3 -->
<g id="edge2" class="edge"><title>Node2&#45;&gt;Node3</title>
<path fill="none" stroke="midnightblue" d="M513.062,-399.612C585.511,-388.689 700,-358.052 700,-273.5 700,-273.5 700,-273.5 700,-204.5 700,-153.836 653.327,-109.344 625.409,-87.2632"/>
<polygon fill="midnightblue" stroke="midnightblue" points="627.488,-84.4467 617.42,-81.1479 623.233,-90.0053 627.488,-84.4467"/>
</g>
<!-- Node4 -->
<g id="node4" class="node"><title>Node4</title>
<g id="a_node4"><a doxygen="/opt/openrobots/share/doc/dynamic-graph/doxygen-html/dynamic-graph.doxytag:../../../../../../opt/openrobots/share/doc/dynamic-graph/doxygen-html/" xlink:href="../../../../../../opt/openrobots/share/doc/dynamic-graph/doxygen-html/a00073.html" target="_top" xlink:title="dynamic&#45;graph/dynamic\l&#45;graph&#45;api.h">
<polygon fill="white" stroke="black" points="268,-56.5 268,-86.5 388,-86.5 388,-56.5 268,-56.5"/>
<text text-anchor="start" x="276" y="-74.5" font-family="Helvetica,sans-Serif" font-size="10.00">dynamic&#45;graph/dynamic</text>
<text text-anchor="middle" x="328" y="-63.5" font-family="Helvetica,sans-Serif" font-size="10.00">&#45;graph&#45;api.h</text>
</a>
</g>
</g>
<!-- Node2&#45;&gt;Node4 -->
<g id="edge3" class="edge"><title>Node2&#45;&gt;Node4</title>
<path fill="none" stroke="midnightblue" d="M441.462,-396.986C427.498,-387.772 405.617,-372.089 390,-355 366.13,-328.881 358.441,-321.482 347,-288 324.306,-221.586 324.619,-137.306 326.444,-96.6291"/>
<polygon fill="midnightblue" stroke="midnightblue" points="329.942,-96.7565 326.967,-86.5879 322.951,-96.3922 329.942,-96.7565"/>
</g>
<!-- Node6 -->
<g id="node6" class="node"><title>Node6</title>
<g id="a_node6"><a doxygen="/opt/openrobots/share/doc/dynamic-graph/doxygen-html/dynamic-graph.doxytag:../../../../../../opt/openrobots/share/doc/dynamic-graph/doxygen-html/" xlink:href="../../../../../../opt/openrobots/share/doc/dynamic-graph/doxygen-html/a00078.html" target="_top" xlink:title="dynamic&#45;graph/exception\l&#45;factory.h">
<polygon fill="white" stroke="black" points="461.5,-190.5 461.5,-220.5 586.5,-220.5 586.5,-190.5 461.5,-190.5"/>
<text text-anchor="start" x="469.5" y="-208.5" font-family="Helvetica,sans-Serif" font-size="10.00">dynamic&#45;graph/exception</text>
<text text-anchor="middle" x="524" y="-197.5" font-family="Helvetica,sans-Serif" font-size="10.00">&#45;factory.h</text>
</a>
</g>
</g>
<!-- Node2&#45;&gt;Node6 -->
<g id="edge5" class="edge"><title>Node2&#45;&gt;Node6</title>
<path fill="none" stroke="midnightblue" d="M475.799,-396.988C492.489,-388.909 514.762,-375.011 525,-355 545.379,-315.169 537.669,-261.1 530.588,-230.399"/>
<polygon fill="midnightblue" stroke="midnightblue" points="533.957,-229.443 528.156,-220.577 527.162,-231.125 533.957,-229.443"/>
</g>
<!-- Node8 -->
<g id="node8" class="node"><title>Node8</title>
<g id="a_node8"><a doxygen="/opt/openrobots/share/doc/dynamic-graph/doxygen-html/dynamic-graph.doxytag:../../../../../../opt/openrobots/share/doc/dynamic-graph/doxygen-html/" xlink:href="../../../../../../opt/openrobots/share/doc/dynamic-graph/doxygen-html/a00089.html" target="_top" xlink:title="dynamic&#45;graph/signal\l&#45;array.h">
<polygon fill="white" stroke="black" points="407.5,-324.5 407.5,-354.5 516.5,-354.5 516.5,-324.5 407.5,-324.5"/>
<text text-anchor="start" x="415.5" y="-342.5" font-family="Helvetica,sans-Serif" font-size="10.00">dynamic&#45;graph/signal</text>
<text text-anchor="middle" x="462" y="-331.5" font-family="Helvetica,sans-Serif" font-size="10.00">&#45;array.h</text>
</a>
</g>
</g>
<!-- Node2&#45;&gt;Node8 -->
<g id="edge11" class="edge"><title>Node2&#45;&gt;Node8</title>
<path fill="none" stroke="midnightblue" d="M455.944,-396.734C456.826,-388.541 458.185,-375.923 459.392,-364.714"/>
<polygon fill="midnightblue" stroke="midnightblue" points="462.892,-364.906 460.483,-354.589 455.932,-364.157 462.892,-364.906"/>
</g>
<!-- Node9 -->
<g id="node9" class="node"><title>Node9</title>
<g id="a_node9"><a doxygen="/opt/openrobots/share/doc/dynamic-graph/doxygen-html/dynamic-graph.doxytag:../../../../../../opt/openrobots/share/doc/dynamic-graph/doxygen-html/" xlink:href="../../../../../../opt/openrobots/share/doc/dynamic-graph/doxygen-html/a00090.html" target="_top" xlink:title="dynamic&#45;graph/signal\l&#45;base.h">
<polygon fill="white" stroke="black" points="356.5,-257.5 356.5,-287.5 465.5,-287.5 465.5,-257.5 356.5,-257.5"/>
<text text-anchor="start" x="364.5" y="-275.5" font-family="Helvetica,sans-Serif" font-size="10.00">dynamic&#45;graph/signal</text>
<text text-anchor="middle" x="411" y="-264.5" font-family="Helvetica,sans-Serif" font-size="10.00">&#45;base.h</text>
</a>
</g>
</g>
<!-- Node2&#45;&gt;Node9 -->
<g id="edge19" class="edge"><title>Node2&#45;&gt;Node9</title>
<path fill="none" stroke="midnightblue" d="M439.311,-396.847C425.532,-388.258 406.41,-373.687 398,-355 389.77,-336.714 394.424,-314.063 400.335,-297.286"/>
<polygon fill="midnightblue" stroke="midnightblue" points="403.704,-298.278 404.073,-287.69 397.182,-295.737 403.704,-298.278"/>
</g>
<!-- Node5 -->
<g id="node5" class="node"><title>Node5</title>
<g id="a_node5"><a doxygen="/opt/openrobots/share/doc/dynamic-graph/doxygen-html/dynamic-graph.doxytag:../../../../../../opt/openrobots/share/doc/dynamic-graph/doxygen-html/" xlink:href="../../../../../../opt/openrobots/share/doc/dynamic-graph/doxygen-html/a00068.html" target="_top" xlink:title="dynamic&#45;graph/config.hh">
<polygon fill="white" stroke="black" points="266.5,-0.5 266.5,-19.5 389.5,-19.5 389.5,-0.5 266.5,-0.5"/>
<text text-anchor="middle" x="328" y="-7.5" font-family="Helvetica,sans-Serif" font-size="10.00">dynamic&#45;graph/config.hh</text>
</a>
</g>
</g>
<!-- Node4&#45;&gt;Node5 -->
<g id="edge4" class="edge"><title>Node4&#45;&gt;Node5</title>
<path fill="none" stroke="midnightblue" d="M328,-56.3993C328,-48.4664 328,-38.458 328,-29.8583"/>
<polygon fill="midnightblue" stroke="midnightblue" points="331.5,-29.6577 328,-19.6578 324.5,-29.6578 331.5,-29.6577"/>
</g>
<!-- Node6&#45;&gt;Node3 -->
<g id="edge6" class="edge"><title>Node6&#45;&gt;Node3</title>
<path fill="none" stroke="midnightblue" d="M558.307,-190.416C573.79,-182.191 590.666,-170.196 600,-154 611.09,-134.756 610.478,-108.539 608.334,-91.0936"/>
<polygon fill="midnightblue" stroke="midnightblue" points="611.772,-90.4191 606.811,-81.0572 604.851,-91.4691 611.772,-90.4191"/>
</g>
<!-- Node6&#45;&gt;Node4 -->
<g id="edge7" class="edge"><title>Node6&#45;&gt;Node4</title>
<path fill="none" stroke="midnightblue" d="M490.576,-190.302C470.338,-181.101 444.392,-168.21 423,-154 395.917,-136.009 368.039,-111.207 349.548,-93.7022"/>
<polygon fill="midnightblue" stroke="midnightblue" points="351.87,-91.0793 342.228,-86.6879 347.027,-96.1336 351.87,-91.0793"/>
</g>
<!-- Node7 -->
<g id="node7" class="node"><title>Node7</title>
<g id="a_node7"><a doxygen="/opt/openrobots/share/doc/dynamic-graph/doxygen-html/dynamic-graph.doxytag:../../../../../../opt/openrobots/share/doc/dynamic-graph/doxygen-html/" xlink:href="../../../../../../opt/openrobots/share/doc/dynamic-graph/doxygen-html/a00077.html" target="_top" xlink:title="dynamic&#45;graph/exception\l&#45;abstract.h">
<polygon fill="white" stroke="black" points="432.5,-123.5 432.5,-153.5 557.5,-153.5 557.5,-123.5 432.5,-123.5"/>
<text text-anchor="start" x="440.5" y="-141.5" font-family="Helvetica,sans-Serif" font-size="10.00">dynamic&#45;graph/exception</text>
<text text-anchor="middle" x="495" y="-130.5" font-family="Helvetica,sans-Serif" font-size="10.00">&#45;abstract.h</text>
</a>
</g>
</g>
<!-- Node6&#45;&gt;Node7 -->
<g id="edge8" class="edge"><title>Node6&#45;&gt;Node7</title>
<path fill="none" stroke="midnightblue" d="M517.707,-190.396C514.135,-182.389 509.572,-172.162 505.475,-162.978"/>
<polygon fill="midnightblue" stroke="midnightblue" points="508.551,-161.283 501.28,-153.577 502.158,-164.135 508.551,-161.283"/>
</g>
<!-- Node7&#45;&gt;Node3 -->
<g id="edge9" class="edge"><title>Node7&#45;&gt;Node3</title>
<path fill="none" stroke="midnightblue" d="M518.868,-123.396C537.571,-112.344 563.436,-97.0607 581.931,-86.1319"/>
<polygon fill="midnightblue" stroke="midnightblue" points="583.775,-89.1076 590.604,-81.007 580.214,-83.0811 583.775,-89.1076"/>
</g>
<!-- Node7&#45;&gt;Node4 -->
<g id="edge10" class="edge"><title>Node7&#45;&gt;Node4</title>
<path fill="none" stroke="midnightblue" d="M458.763,-123.396C433.816,-113.686 400.475,-100.709 373.704,-90.2889"/>
<polygon fill="midnightblue" stroke="midnightblue" points="374.754,-86.9421 364.166,-86.5765 372.215,-93.4654 374.754,-86.9421"/>
</g>
<!-- Node8&#45;&gt;Node4 -->
<g id="edge18" class="edge"><title>Node8&#45;&gt;Node4</title>
<path fill="none" stroke="midnightblue" d="M468.222,-324.476C474.668,-307.851 482.677,-279.559 474,-257 462.929,-228.217 399.798,-178.447 381,-154 366.33,-134.921 351.559,-111.81 341.351,-95.0788"/>
<polygon fill="midnightblue" stroke="midnightblue" points="344.341,-93.2603 336.179,-86.5059 338.348,-96.8763 344.341,-93.2603"/>
</g>
<!-- Node8&#45;&gt;Node9 -->
<g id="edge12" class="edge"><title>Node8&#45;&gt;Node9</title>
<path fill="none" stroke="midnightblue" d="M450.934,-324.396C444.317,-315.963 435.768,-305.067 428.278,-295.522"/>
<polygon fill="midnightblue" stroke="midnightblue" points="430.971,-293.283 422.045,-287.577 425.464,-297.604 430.971,-293.283"/>
</g>
<!-- Node9&#45;&gt;Node3 -->
<g id="edge13" class="edge"><title>Node9&#45;&gt;Node3</title>
<path fill="none" stroke="midnightblue" d="M465.873,-269.71C506.355,-265.551 560.228,-253.654 595,-221 627.613,-190.374 623.621,-167.384 618,-123 616.643,-112.284 613.727,-100.587 611,-91.1517"/>
<polygon fill="midnightblue" stroke="midnightblue" points="614.261,-89.8477 607.99,-81.308 607.567,-91.8944 614.261,-89.8477"/>
</g>
<!-- Node10 -->
<g id="node10" class="node"><title>Node10</title>
<g id="a_node10"><a doxygen="/opt/openrobots/share/doc/dynamic-graph/doxygen-html/dynamic-graph.doxytag:../../../../../../opt/openrobots/share/doc/dynamic-graph/doxygen-html/" xlink:href="../../../../../../opt/openrobots/share/doc/dynamic-graph/doxygen-html/a00079.html" target="_top" xlink:title="dynamic&#45;graph/exception\l&#45;signal.h">
<polygon fill="white" stroke="black" points="174.5,-190.5 174.5,-220.5 299.5,-220.5 299.5,-190.5 174.5,-190.5"/>
<text text-anchor="start" x="182.5" y="-208.5" font-family="Helvetica,sans-Serif" font-size="10.00">dynamic&#45;graph/exception</text>
<text text-anchor="middle" x="237" y="-197.5" font-family="Helvetica,sans-Serif" font-size="10.00">&#45;signal.h</text>
</a>
</g>
</g>
<!-- Node9&#45;&gt;Node10 -->
<g id="edge14" class="edge"><title>Node9&#45;&gt;Node10</title>
<path fill="none" stroke="midnightblue" d="M373.245,-257.396C347.137,-247.643 312.208,-234.595 284.253,-224.152"/>
<polygon fill="midnightblue" stroke="midnightblue" points="285.274,-220.797 274.682,-220.577 282.825,-227.355 285.274,-220.797"/>
</g>
<!-- Node10&#45;&gt;Node3 -->
<g id="edge15" class="edge"><title>Node10&#45;&gt;Node3</title>
<path fill="none" stroke="midnightblue" d="M299.569,-201.768C382.976,-196.985 524.872,-184.518 566,-154 586.534,-138.763 596.73,-109.886 601.429,-90.9177"/>
<polygon fill="midnightblue" stroke="midnightblue" points="604.864,-91.5909 603.596,-81.0723 598.028,-90.0858 604.864,-91.5909"/>
</g>
<!-- Node10&#45;&gt;Node4 -->
<g id="edge16" class="edge"><title>Node10&#45;&gt;Node4</title>
<path fill="none" stroke="midnightblue" d="M246.739,-190.374C262.475,-167.548 293.627,-122.359 312.458,-95.0446"/>
<polygon fill="midnightblue" stroke="midnightblue" points="315.537,-96.7445 318.331,-86.5247 309.774,-92.7713 315.537,-96.7445"/>
</g>
<!-- Node10&#45;&gt;Node7 -->
<g id="edge17" class="edge"><title>Node10&#45;&gt;Node7</title>
<path fill="none" stroke="midnightblue" d="M292.665,-190.476C332.709,-180.387 386.873,-166.741 429.083,-156.107"/>
<polygon fill="midnightblue" stroke="midnightblue" points="430.149,-159.448 438.991,-153.611 428.438,-152.66 430.149,-159.448"/>
</g>
<!-- Node11&#45;&gt;Node10 -->
<g id="edge21" class="edge"><title>Node11&#45;&gt;Node10</title>
<path fill="none" stroke="midnightblue" d="M221.86,-458.199C224.465,-414.888 232.289,-284.816 235.549,-230.617"/>
<polygon fill="midnightblue" stroke="midnightblue" points="239.048,-230.741 236.155,-220.549 232.061,-230.321 239.048,-230.741"/>
</g>
<!-- Node12 -->
<g id="node12" class="node"><title>Node12</title>
<g id="a_node12"><a doxygen="/opt/openrobots/share/doc/dynamic-graph/doxygen-html/dynamic-graph.doxytag:../../../../../../opt/openrobots/share/doc/dynamic-graph/doxygen-html/" xlink:href="../../../../../../opt/openrobots/share/doc/dynamic-graph/doxygen-html/a00097.html" target="_top" xlink:title="dynamic&#45;graph/signal.h">
<polygon fill="white" stroke="black" points="249.5,-397 249.5,-416 366.5,-416 366.5,-397 249.5,-397"/>
<text text-anchor="middle" x="308" y="-404" font-family="Helvetica,sans-Serif" font-size="10.00">dynamic&#45;graph/signal.h</text>
</a>
</g>
</g>
<!-- Node11&#45;&gt;Node12 -->
<g id="edge22" class="edge"><title>Node11&#45;&gt;Node12</title>
<path fill="none" stroke="midnightblue" d="M239.878,-458.396C254.114,-447.759 273.598,-433.203 288.082,-422.381"/>
<polygon fill="midnightblue" stroke="midnightblue" points="290.446,-424.984 296.363,-416.195 286.257,-419.376 290.446,-424.984"/>
</g>
<!-- Node16 -->
<g id="node16" class="node"><title>Node16</title>
<g id="a_node16"><a doxygen="/opt/openrobots/share/doc/dynamic-graph/doxygen-html/dynamic-graph.doxytag:../../../../../../opt/openrobots/share/doc/dynamic-graph/doxygen-html/" xlink:href="../../../../../../opt/openrobots/share/doc/dynamic-graph/doxygen-html/a00095.html" target="_top" xlink:title="dynamic&#45;graph/signal\l&#45;ptr.t.cpp">
<polygon fill="white" stroke="black" points="83.5,-391.5 83.5,-421.5 192.5,-421.5 192.5,-391.5 83.5,-391.5"/>
<text text-anchor="start" x="91.5" y="-409.5" font-family="Helvetica,sans-Serif" font-size="10.00">dynamic&#45;graph/signal</text>
<text text-anchor="middle" x="138" y="-398.5" font-family="Helvetica,sans-Serif" font-size="10.00">&#45;ptr.t.cpp</text>
</a>
</g>
</g>
<!-- Node11&#45;&gt;Node16 -->
<g id="edge33" class="edge"><title>Node11&#45;&gt;Node16</title>
<path fill="none" stroke="midnightblue" d="M197.312,-458.396C184.838,-449.538 169.838,-437.96 157.957,-428.086"/>
<polygon fill="midnightblue" stroke="midnightblue" points="160.186,-425.387 150.3,-421.577 155.652,-430.72 160.186,-425.387"/>
</g>
<!-- Node12&#45;&gt;Node9 -->
<g id="edge24" class="edge"><title>Node12&#45;&gt;Node9</title>
<path fill="none" stroke="midnightblue" d="M314.758,-396.839C330.563,-376.584 370.35,-325.595 393.519,-295.903"/>
<polygon fill="midnightblue" stroke="midnightblue" points="396.462,-297.82 399.855,-287.783 390.944,-293.514 396.462,-297.82"/>
</g>
<!-- Node12&#45;&gt;Node10 -->
<g id="edge23" class="edge"><title>Node12&#45;&gt;Node10</title>
<path fill="none" stroke="midnightblue" d="M304.949,-396.949C294.702,-368.229 261.277,-274.544 245.452,-230.19"/>
<polygon fill="midnightblue" stroke="midnightblue" points="248.664,-228.775 242.007,-220.533 242.071,-231.128 248.664,-228.775"/>
</g>
<!-- Node13 -->
<g id="node13" class="node"><title>Node13</title>
<g id="a_node13"><a doxygen="/opt/openrobots/share/doc/dynamic-graph/doxygen-html/dynamic-graph.doxytag:../../../../../../opt/openrobots/share/doc/dynamic-graph/doxygen-html/" xlink:href="../../../../../../opt/openrobots/share/doc/dynamic-graph/doxygen-html/a00098.html" target="_top" xlink:title="dynamic&#45;graph/signal.t.cpp">
<polygon fill="white" stroke="black" points="65,-330 65,-349 199,-349 199,-330 65,-330"/>
<text text-anchor="middle" x="132" y="-337" font-family="Helvetica,sans-Serif" font-size="10.00">dynamic&#45;graph/signal.t.cpp</text>
</a>
</g>
</g>
<!-- Node12&#45;&gt;Node13 -->
<g id="edge25" class="edge"><title>Node12&#45;&gt;Node13</title>
<path fill="none" stroke="midnightblue" d="M279.869,-396.869C246.868,-385.571 192.832,-365.696 159.929,-352.818"/>
<polygon fill="midnightblue" stroke="midnightblue" points="161.029,-349.49 150.442,-349.064 158.452,-355.998 161.029,-349.49"/>
</g>
<!-- Node13&#45;&gt;Node12 -->
<g id="edge26" class="edge"><title>Node13&#45;&gt;Node12</title>
<path fill="none" stroke="midnightblue" d="M159.933,-349.064C192.849,-360.327 246.885,-380.198 279.873,-393.104"/>
<polygon fill="midnightblue" stroke="midnightblue" points="278.802,-396.444 289.389,-396.869 281.377,-389.935 278.802,-396.444"/>
</g>
<!-- Node14 -->
<g id="node14" class="node"><title>Node14</title>
<g id="a_node14"><a doxygen="/opt/openrobots/share/doc/dynamic-graph/doxygen-html/dynamic-graph.doxytag:../../../../../../opt/openrobots/share/doc/dynamic-graph/doxygen-html/" xlink:href="../../../../../../opt/openrobots/share/doc/dynamic-graph/doxygen-html/a00092.html" target="_top" xlink:title="dynamic&#45;graph/signal\l&#45;caster.h">
<polygon fill="white" stroke="black" points="89.5,-257.5 89.5,-287.5 198.5,-287.5 198.5,-257.5 89.5,-257.5"/>
<text text-anchor="start" x="97.5" y="-275.5" font-family="Helvetica,sans-Serif" font-size="10.00">dynamic&#45;graph/signal</text>
<text text-anchor="middle" x="144" y="-264.5" font-family="Helvetica,sans-Serif" font-size="10.00">&#45;caster.h</text>
</a>
</g>
</g>
<!-- Node13&#45;&gt;Node14 -->
<g id="edge27" class="edge"><title>Node13&#45;&gt;Node14</title>
<path fill="none" stroke="midnightblue" d="M133.618,-329.734C135.131,-321.541 137.46,-308.923 139.53,-297.714"/>
<polygon fill="midnightblue" stroke="midnightblue" points="143.025,-298.058 141.399,-287.589 136.142,-296.787 143.025,-298.058"/>
</g>
<!-- Node15 -->
<g id="node15" class="node"><title>Node15</title>
<g id="a_node15"><a doxygen="/opt/openrobots/share/doc/dynamic-graph/doxygen-html/dynamic-graph.doxytag:../../../../../../opt/openrobots/share/doc/dynamic-graph/doxygen-html/" xlink:href="../../../../../../opt/openrobots/share/doc/dynamic-graph/doxygen-html/a00070.html" target="_top" xlink:title="dynamic&#45;graph/debug.h">
<polygon fill="white" stroke="black" points="0,-129 0,-148 118,-148 118,-129 0,-129"/>
<text text-anchor="middle" x="59" y="-136" font-family="Helvetica,sans-Serif" font-size="10.00">dynamic&#45;graph/debug.h</text>
</a>
</g>
</g>
<!-- Node13&#45;&gt;Node15 -->
<g id="edge30" class="edge"><title>Node13&#45;&gt;Node15</title>
<path fill="none" stroke="midnightblue" d="M118.934,-329.757C106.706,-320.807 89.0095,-305.725 80,-288 58.3357,-245.378 56.9459,-187.497 57.8917,-158.177"/>
<polygon fill="midnightblue" stroke="midnightblue" points="61.3913,-158.261 58.3498,-148.112 54.3986,-157.943 61.3913,-158.261"/>
</g>
<!-- Node14&#45;&gt;Node4 -->
<g id="edge28" class="edge"><title>Node14&#45;&gt;Node4</title>
<path fill="none" stroke="midnightblue" d="M144.748,-257.336C146.273,-240.065 150.909,-210.633 165,-190 195.924,-144.721 250.321,-110.748 287.71,-91.2673"/>
<polygon fill="midnightblue" stroke="midnightblue" points="289.5,-94.2838 296.824,-86.6288 286.325,-88.0452 289.5,-94.2838"/>
</g>
<!-- Node14&#45;&gt;Node10 -->
<g id="edge29" class="edge"><title>Node14&#45;&gt;Node10</title>
<path fill="none" stroke="midnightblue" d="M164.18,-257.396C177.098,-248.367 194.057,-236.514 208.358,-226.518"/>
<polygon fill="midnightblue" stroke="midnightblue" points="210.668,-229.174 216.86,-220.577 206.658,-223.436 210.668,-229.174"/>
</g>
<!-- Node15&#45;&gt;Node3 -->
<g id="edge31" class="edge"><title>Node15&#45;&gt;Node3</title>
<path fill="none" stroke="midnightblue" d="M118.21,-130.451C220.775,-118.241 430.798,-93.2383 538.331,-80.4368"/>
<polygon fill="midnightblue" stroke="midnightblue" points="538.894,-83.8946 548.41,-79.2369 538.067,-76.9436 538.894,-83.8946"/>
</g>
<!-- Node15&#45;&gt;Node4 -->
<g id="edge32" class="edge"><title>Node15&#45;&gt;Node4</title>
<path fill="none" stroke="midnightblue" d="M94.4437,-128.936C136.395,-118.799 207.195,-101.691 259.87,-88.9625"/>
<polygon fill="midnightblue" stroke="midnightblue" points="260.919,-92.3101 269.817,-86.5592 259.274,-85.5059 260.919,-92.3101"/>
</g>
<!-- Node16&#45;&gt;Node11 -->
<g id="edge34" class="edge"><title>Node16&#45;&gt;Node11</title>
<path fill="none" stroke="midnightblue" d="M161.649,-421.577C174.118,-430.429 189.118,-442.005 201.006,-451.883"/>
<polygon fill="midnightblue" stroke="midnightblue" points="198.782,-454.587 208.669,-458.396 203.316,-449.253 198.782,-454.587"/>
</g>
<!-- Node16&#45;&gt;Node15 -->
<g id="edge35" class="edge"><title>Node16&#45;&gt;Node15</title>
<path fill="none" stroke="midnightblue" d="M98.9368,-391.451C82.6409,-383.436 65.3567,-371.605 56,-355 19.6442,-290.48 41.2991,-196.909 52.9945,-157.776"/>
<polygon fill="midnightblue" stroke="midnightblue" points="56.3902,-158.644 56.0371,-148.055 49.7098,-156.553 56.3902,-158.644"/>
</g>
</g>
</svg>
