<?xml version="1.0" encoding="UTF-8" standalone="no"?>
<!DOCTYPE svg PUBLIC "-//W3C//DTD SVG 1.1//EN"
 "http://www.w3.org/Graphics/SVG/1.1/DTD/svg11.dtd">
<!-- Generated by graphviz version 2.38.0 (20140413.2041)
 -->
<!-- Title: Graphical Class Hierarchy Pages: 1 -->
<svg width="266pt" height="88pt"
 viewBox="0.00 0.00 266.00 88.00" xmlns="http://www.w3.org/2000/svg" xmlns:xlink="http://www.w3.org/1999/xlink">
<g id="graph0" class="graph" transform="scale(1 1) rotate(0) translate(4 84)">
<title>Graphical Class Hierarchy</title>
<polygon fill="white" stroke="none" points="-4,4 -4,-84 262,-84 262,4 -4,4"/>
<!-- Node1 -->
<g id="node1" class="node"><title>Node1</title>
<g id="a_node1"><a doxygen="/opt/openrobots/share/doc/dynamic-graph/doxygen-html/dynamic-graph.doxytag:../../../../../../opt/openrobots/share/doc/dynamic-graph/doxygen-html/" xlink:href="../../../../../../opt/openrobots/share/doc/dynamic-graph/doxygen-html/a00019.html" target="_top" xlink:title="dynamicgraph::Entity">
<polygon fill="white" stroke="black" points="0,-30 0,-49 109,-49 109,-30 0,-30"/>
<text text-anchor="middle" x="54.5" y="-37" font-family="Helvetica,sans-Serif" font-size="10.00">dynamicgraph::Entity</text>
</a>
</g>
</g>
<!-- Node2 -->
<g id="node2" class="node"><title>Node2</title>
<g id="a_node2"><a xlink:href="a00009.html" target="_top" xlink:title="Feedback controller for an inverted pendulum. ">
<polygon fill="white" stroke="black" points="145,-49.5 145,-79.5 258,-79.5 258,-49.5 145,-49.5"/>
<text text-anchor="start" x="153" y="-67.5" font-family="Helvetica,sans-Serif" font-size="10.00">dynamicgraph::tutorial</text>
<text text-anchor="middle" x="201.5" y="-56.5" font-family="Helvetica,sans-Serif" font-size="10.00">::FeedbackController</text>
</a>
</g>
</g>
<!-- Node1&#45;&gt;Node2 -->
<g id="edge1" class="edge"><title>Node1&#45;&gt;Node2</title>
<path fill="none" stroke="midnightblue" d="M119.019,-50.4515C127.576,-51.9268 136.302,-53.4314 144.711,-54.8813"/>
<polygon fill="midnightblue" stroke="midnightblue" points="119.53,-46.9881 109.081,-48.738 118.341,-53.8863 119.53,-46.9881"/>
</g>
<!-- Node3 -->
<g id="node3" class="node"><title>Node3</title>
<g id="a_node3"><a xlink:href="a00010.html" target="_top" xlink:title="Inverted Pendulum on a cart. ">
<polygon fill="white" stroke="black" points="145,-0.5 145,-30.5 258,-30.5 258,-0.5 145,-0.5"/>
<text text-anchor="start" x="153" y="-18.5" font-family="Helvetica,sans-Serif" font-size="10.00">dynamicgraph::tutorial</text>
<text text-anchor="middle" x="201.5" y="-7.5" font-family="Helvetica,sans-Serif" font-size="10.00">::InvertedPendulum</text>
</a>
</g>
</g>
<!-- Node1&#45;&gt;Node3 -->
<g id="edge2" class="edge"><title>Node1&#45;&gt;Node3</title>
<path fill="none" stroke="midnightblue" d="M119.019,-28.9865C127.576,-27.5702 136.302,-26.1258 144.711,-24.734"/>
<polygon fill="midnightblue" stroke="midnightblue" points="118.375,-25.5454 109.081,-30.6315 119.518,-32.4515 118.375,-25.5454"/>
</g>
</g>
</svg>
